<?xml version="1.0" encoding="UTF-8"?><svg id="Layer_1" xmlns="http://www.w3.org/2000/svg" viewBox="0 0 111 111"><defs><style>.cls-1{fill:#FFFFFF;}</style></defs><g></g><path class="cls-1" d="M94.86,0H16.48C7.38,0,0,7.38,0,16.48V94.86c0,9.1,7.38,16.48,16.48,16.48H94.86c9.1,0,16.48-7.38,16.48-16.48V16.48c0-9.1-7.38-16.48-16.48-16.48ZM55.67,100.42c-24.72,0-44.76-20.04-44.76-44.76S30.95,10.91,55.67,10.91s44.76,20.04,44.76,44.76-20.04,44.76-44.76,44.76Z"/><polygon class="cls-1" points="93.57 55.66 64.69 39.88 67.87 49.83 43.47 49.83 46.64 39.88 17.76 55.67 46.64 71.46 43.47 61.5 67.87 61.5 64.69 71.46 93.57 55.66"/></svg>